#N canvas 35 15 940 822 10;
#X obj 124 60 ctlin;
#X obj 124 112 pack f f;
#X msg 124 135 \$2 \$1;
#X obj 68 228 unpack f f;
#X obj 135 254 - 64;
#X obj 68 299 pack f f;
#X floatatom 68 434 5 0 0 0 - - -;
#X obj 496 274 spigot;
#X obj 535 231 unpack f f;
#X obj 496 206 t a a;
#X obj 496 408 tgl 15 0 empty empty empty 17 7 0 10 -262144 -1 -1 0
127;
#X obj 514 408 tgl 15 0 empty empty empty 17 7 0 10 -262144 -1 -1 0
127;
#X obj 532 408 tgl 15 0 empty empty empty 17 7 0 10 -262144 -1 -1 0
127;
#X obj 550 408 tgl 15 0 empty empty empty 17 7 0 10 -262144 -1 -1 0
127;
#X obj 568 408 tgl 15 0 empty empty empty 17 7 0 10 -262144 -1 -1 0
127;
#X obj 586 408 tgl 15 0 empty empty empty 17 7 0 10 -262144 -1 -1 0
127;
#X obj 604 408 tgl 15 0 empty empty empty 17 7 0 10 -262144 -1 -1 0
127;
#X obj 622 408 tgl 15 0 empty empty empty 17 7 0 10 -262144 -1 -1 0
127;
#X obj 135 274 * 0.5;
#X obj 68 331 route 0 1 2 3 4 5 6 7;
#X obj 535 251 >= 16;
#X obj 496 321 route 0 1 2 3 4 5 6 7;
#X obj 640 453 tgl 15 0 empty empty empty 17 7 0 10 -262144 -1 -1 0
127;
#X obj 658 453 tgl 15 0 empty empty empty 17 7 0 10 -262144 -1 -1 0
127;
#X obj 676 453 tgl 15 0 empty empty empty 17 7 0 10 -262144 -1 -1 0
127;
#X obj 694 453 tgl 15 0 empty empty empty 17 7 0 10 -262144 -1 -1 0
127;
#X obj 712 453 tgl 15 0 empty empty empty 17 7 0 10 -262144 -1 -1 0
127;
#X obj 730 453 tgl 15 0 empty empty empty 17 7 0 10 -262144 -1 -1 0
127;
#X obj 748 453 tgl 15 0 empty empty empty 17 7 0 10 -262144 -1 -1 0
127;
#X obj 766 453 tgl 15 0 empty empty empty 17 7 0 10 -262144 -1 -1 0
127;
#X obj 640 366 route 0 1 2 3 4 5 6 7;
#N canvas 0 15 600 430 minus16 0;
#X obj 18 53 unpack f f;
#X obj 18 103 pack f f;
#X obj 18 78 - 16;
#X obj 18 25 inlet;
#X obj 18 127 outlet;
#X connect 0 0 2 0;
#X connect 0 1 1 1;
#X connect 1 0 4 0;
#X connect 2 0 1 0;
#X connect 3 0 0 0;
#X restore 496 297 pd minus16;
#N canvas 0 15 600 430 minus8 0;
#X obj 18 53 unpack f f;
#X obj 18 103 pack f f;
#X obj 18 25 inlet;
#X obj 18 127 outlet;
#X obj 18 78 - 8;
#X connect 0 0 4 0;
#X connect 0 1 1 1;
#X connect 1 0 3 0;
#X connect 2 0 0 0;
#X connect 4 0 1 0;
#X restore 640 343 pd minus8;
#X obj 784 500 tgl 15 0 empty empty empty 17 7 0 10 -262144 -1 -1 0
127;
#X obj 802 500 tgl 15 0 empty empty empty 17 7 0 10 -262144 -1 -1 0
127;
#X obj 820 500 tgl 15 0 empty empty empty 17 7 0 10 -262144 -1 -1 0
127;
#X obj 838 500 tgl 15 0 empty empty empty 17 7 0 10 -262144 -1 -1 0
127;
#X obj 856 500 tgl 15 0 empty empty empty 17 7 0 10 -262144 -1 -1 0
127;
#X obj 874 500 tgl 15 0 empty empty empty 17 7 0 10 -262144 -1 -1 0
127;
#X obj 892 500 tgl 15 0 empty empty empty 17 7 0 10 -262144 -1 -1 0
127;
#X obj 910 500 tgl 15 0 empty empty empty 17 7 0 10 -262144 -1 -1 0
127;
#X obj 784 413 route 0 1 2 3 4 5 6 7;
#N canvas 0 15 600 430 minus8 0;
#X obj 18 53 unpack f f;
#X obj 18 103 pack f f;
#X obj 18 25 inlet;
#X obj 18 127 outlet;
#X obj 18 78 - 8;
#X connect 0 0 4 0;
#X connect 0 1 1 1;
#X connect 1 0 3 0;
#X connect 2 0 0 0;
#X connect 4 0 1 0;
#X restore 784 390 pd minus8;
#N canvas 315 179 171 210 (subpatch) 0;
#X obj 43 45 inlet;
#X obj 43 109 outlet;
#X obj 43 66 + 0;
#X obj 43 87 f;
#X obj 9 -3 r \$0-reset;
#X obj 9 21 bang;
#X msg 9 44 0;
#X connect 0 0 2 0;
#X connect 2 0 3 0;
#X connect 3 0 1 0;
#X connect 3 0 2 1;
#X connect 4 0 5 0;
#X connect 5 0 6 0;
#X connect 6 0 3 0;
#X restore 68 414 pd;
#X obj 447 535 s \$0-reset;
#X obj 447 508 bng 15 250 50 0 empty empty empty 17 7 0 10 -262144
-1 -1;
#X floatatom 108 434 5 0 0 0 - - -;
#N canvas 315 179 171 210 (subpatch) 0;
#X obj 43 45 inlet;
#X obj 43 109 outlet;
#X obj 43 66 + 0;
#X obj 43 87 f;
#X obj 9 -3 r \$0-reset;
#X obj 9 21 bang;
#X msg 9 44 0;
#X connect 0 0 2 0;
#X connect 2 0 3 0;
#X connect 3 0 1 0;
#X connect 3 0 2 1;
#X connect 4 0 5 0;
#X connect 5 0 6 0;
#X connect 6 0 3 0;
#X restore 108 414 pd;
#X floatatom 148 434 5 0 0 0 - - -;
#N canvas 315 179 171 210 (subpatch) 0;
#X obj 43 45 inlet;
#X obj 43 109 outlet;
#X obj 43 66 + 0;
#X obj 43 87 f;
#X obj 9 -3 r \$0-reset;
#X obj 9 21 bang;
#X msg 9 44 0;
#X connect 0 0 2 0;
#X connect 2 0 3 0;
#X connect 3 0 1 0;
#X connect 3 0 2 1;
#X connect 4 0 5 0;
#X connect 5 0 6 0;
#X connect 6 0 3 0;
#X restore 148 414 pd;
#X floatatom 188 434 5 0 0 0 - - -;
#N canvas 315 179 171 210 (subpatch) 0;
#X obj 43 45 inlet;
#X obj 43 109 outlet;
#X obj 43 66 + 0;
#X obj 43 87 f;
#X obj 9 -3 r \$0-reset;
#X obj 9 21 bang;
#X msg 9 44 0;
#X connect 0 0 2 0;
#X connect 2 0 3 0;
#X connect 3 0 1 0;
#X connect 3 0 2 1;
#X connect 4 0 5 0;
#X connect 5 0 6 0;
#X connect 6 0 3 0;
#X restore 188 414 pd;
#X floatatom 228 434 5 0 0 0 - - -;
#N canvas 315 179 171 210 (subpatch) 0;
#X obj 43 45 inlet;
#X obj 43 109 outlet;
#X obj 43 66 + 0;
#X obj 43 87 f;
#X obj 9 -3 r \$0-reset;
#X obj 9 21 bang;
#X msg 9 44 0;
#X connect 0 0 2 0;
#X connect 2 0 3 0;
#X connect 3 0 1 0;
#X connect 3 0 2 1;
#X connect 4 0 5 0;
#X connect 5 0 6 0;
#X connect 6 0 3 0;
#X restore 228 414 pd;
#X floatatom 268 434 5 0 0 0 - - -;
#N canvas 315 179 171 210 (subpatch) 0;
#X obj 43 45 inlet;
#X obj 43 109 outlet;
#X obj 43 66 + 0;
#X obj 43 87 f;
#X obj 9 -3 r \$0-reset;
#X obj 9 21 bang;
#X msg 9 44 0;
#X connect 0 0 2 0;
#X connect 2 0 3 0;
#X connect 3 0 1 0;
#X connect 3 0 2 1;
#X connect 4 0 5 0;
#X connect 5 0 6 0;
#X connect 6 0 3 0;
#X restore 268 414 pd;
#X floatatom 308 434 5 0 0 0 - - -;
#N canvas 315 179 171 210 (subpatch) 0;
#X obj 43 45 inlet;
#X obj 43 109 outlet;
#X obj 43 66 + 0;
#X obj 43 87 f;
#X obj 9 -3 r \$0-reset;
#X obj 9 21 bang;
#X msg 9 44 0;
#X connect 0 0 2 0;
#X connect 2 0 3 0;
#X connect 3 0 1 0;
#X connect 3 0 2 1;
#X connect 4 0 5 0;
#X connect 5 0 6 0;
#X connect 6 0 3 0;
#X restore 308 414 pd;
#X floatatom 348 434 5 0 0 0 - - -;
#N canvas 315 179 171 210 (subpatch) 0;
#X obj 43 45 inlet;
#X obj 43 109 outlet;
#X obj 43 66 + 0;
#X obj 43 87 f;
#X obj 9 -3 r \$0-reset;
#X obj 9 21 bang;
#X msg 9 44 0;
#X connect 0 0 2 0;
#X connect 2 0 3 0;
#X connect 3 0 1 0;
#X connect 3 0 2 1;
#X connect 4 0 5 0;
#X connect 5 0 6 0;
#X connect 6 0 3 0;
#X restore 348 414 pd;
#X floatatom 68 595 5 0 0 0 - - -;
#X obj 68 492 route 0 1 2 3 4 5 6 7;
#N canvas 315 179 171 210 (subpatch) 0;
#X obj 43 45 inlet;
#X obj 43 109 outlet;
#X obj 43 66 + 0;
#X obj 43 87 f;
#X obj 9 -3 r \$0-reset;
#X obj 9 21 bang;
#X msg 9 44 0;
#X connect 0 0 2 0;
#X connect 2 0 3 0;
#X connect 3 0 1 0;
#X connect 3 0 2 1;
#X connect 4 0 5 0;
#X connect 5 0 6 0;
#X connect 6 0 3 0;
#X restore 68 575 pd;
#X floatatom 108 595 5 0 0 0 - - -;
#N canvas 315 179 171 210 (subpatch) 0;
#X obj 43 45 inlet;
#X obj 43 109 outlet;
#X obj 43 66 + 0;
#X obj 43 87 f;
#X obj 9 -3 r \$0-reset;
#X obj 9 21 bang;
#X msg 9 44 0;
#X connect 0 0 2 0;
#X connect 2 0 3 0;
#X connect 3 0 1 0;
#X connect 3 0 2 1;
#X connect 4 0 5 0;
#X connect 5 0 6 0;
#X connect 6 0 3 0;
#X restore 108 575 pd;
#X floatatom 148 595 5 0 0 0 - - -;
#N canvas 315 179 171 210 (subpatch) 0;
#X obj 43 45 inlet;
#X obj 43 109 outlet;
#X obj 43 66 + 0;
#X obj 43 87 f;
#X obj 9 -3 r \$0-reset;
#X obj 9 21 bang;
#X msg 9 44 0;
#X connect 0 0 2 0;
#X connect 2 0 3 0;
#X connect 3 0 1 0;
#X connect 3 0 2 1;
#X connect 4 0 5 0;
#X connect 5 0 6 0;
#X connect 6 0 3 0;
#X restore 148 575 pd;
#X floatatom 188 595 5 0 0 0 - - -;
#N canvas 315 179 171 210 (subpatch) 0;
#X obj 43 45 inlet;
#X obj 43 109 outlet;
#X obj 43 66 + 0;
#X obj 43 87 f;
#X obj 9 -3 r \$0-reset;
#X obj 9 21 bang;
#X msg 9 44 0;
#X connect 0 0 2 0;
#X connect 2 0 3 0;
#X connect 3 0 1 0;
#X connect 3 0 2 1;
#X connect 4 0 5 0;
#X connect 5 0 6 0;
#X connect 6 0 3 0;
#X restore 188 575 pd;
#X floatatom 228 595 5 0 0 0 - - -;
#N canvas 315 179 171 210 (subpatch) 0;
#X obj 43 45 inlet;
#X obj 43 109 outlet;
#X obj 43 66 + 0;
#X obj 43 87 f;
#X obj 9 -3 r \$0-reset;
#X obj 9 21 bang;
#X msg 9 44 0;
#X connect 0 0 2 0;
#X connect 2 0 3 0;
#X connect 3 0 1 0;
#X connect 3 0 2 1;
#X connect 4 0 5 0;
#X connect 5 0 6 0;
#X connect 6 0 3 0;
#X restore 228 575 pd;
#X floatatom 268 595 5 0 0 0 - - -;
#N canvas 315 179 171 210 (subpatch) 0;
#X obj 43 45 inlet;
#X obj 43 109 outlet;
#X obj 43 66 + 0;
#X obj 43 87 f;
#X obj 9 -3 r \$0-reset;
#X obj 9 21 bang;
#X msg 9 44 0;
#X connect 0 0 2 0;
#X connect 2 0 3 0;
#X connect 3 0 1 0;
#X connect 3 0 2 1;
#X connect 4 0 5 0;
#X connect 5 0 6 0;
#X connect 6 0 3 0;
#X restore 268 575 pd;
#X floatatom 308 595 5 0 0 0 - - -;
#N canvas 315 179 171 210 (subpatch) 0;
#X obj 43 45 inlet;
#X obj 43 109 outlet;
#X obj 43 66 + 0;
#X obj 43 87 f;
#X obj 9 -3 r \$0-reset;
#X obj 9 21 bang;
#X msg 9 44 0;
#X connect 0 0 2 0;
#X connect 2 0 3 0;
#X connect 3 0 1 0;
#X connect 3 0 2 1;
#X connect 4 0 5 0;
#X connect 5 0 6 0;
#X connect 6 0 3 0;
#X restore 308 575 pd;
#X floatatom 348 595 5 0 0 0 - - -;
#N canvas 315 179 171 210 (subpatch) 0;
#X obj 43 45 inlet;
#X obj 43 109 outlet;
#X obj 43 66 + 0;
#X obj 43 87 f;
#X obj 9 -3 r \$0-reset;
#X obj 9 21 bang;
#X msg 9 44 0;
#X connect 0 0 2 0;
#X connect 2 0 3 0;
#X connect 3 0 1 0;
#X connect 3 0 2 1;
#X connect 4 0 5 0;
#X connect 5 0 6 0;
#X connect 6 0 3 0;
#X restore 348 575 pd;
#N canvas 0 15 600 430 minus8 0;
#X obj 18 53 unpack f f;
#X obj 18 103 pack f f;
#X obj 18 25 inlet;
#X obj 18 127 outlet;
#X obj 18 78 - 8;
#X connect 0 0 4 0;
#X connect 0 1 1 1;
#X connect 1 0 3 0;
#X connect 2 0 0 0;
#X connect 4 0 1 0;
#X restore 389 431 pd minus8;
#X obj 348 614 + 64;
#X obj 348 636 mtof;
#X obj 349 720 osc~;
#X obj 354 780 dac~;
#X floatatom 348 658 5 0 0 0 - - -;
#X obj 348 676 sig~;
#X obj 349 698 lop~ 5;
#X obj 807 748 dac~;
#X obj 806 687 osc~ 440;
#X obj 807 710 *~ 0;
#X obj 784 575 * 0.5;
#X obj 349 743 *~ 0;
#X obj 415 690 / 127;
#X obj 415 717 * 0.5;
#X obj 784 552 / 127;
#X connect 0 0 1 0;
#X connect 0 1 1 1;
#X connect 1 0 2 0;
#X connect 2 0 3 0;
#X connect 2 0 9 0;
#X connect 3 0 5 0;
#X connect 3 1 4 0;
#X connect 4 0 18 0;
#X connect 5 0 19 0;
#X connect 7 0 31 0;
#X connect 8 0 20 0;
#X connect 9 0 7 0;
#X connect 9 1 8 0;
#X connect 18 0 5 1;
#X connect 19 0 43 0;
#X connect 19 1 47 0;
#X connect 19 2 49 0;
#X connect 19 3 51 0;
#X connect 19 4 53 0;
#X connect 19 5 55 0;
#X connect 19 6 57 0;
#X connect 19 7 59 0;
#X connect 19 8 77 0;
#X connect 20 0 7 1;
#X connect 21 0 10 0;
#X connect 21 1 11 0;
#X connect 21 2 12 0;
#X connect 21 3 13 0;
#X connect 21 4 14 0;
#X connect 21 5 15 0;
#X connect 21 6 16 0;
#X connect 21 7 17 0;
#X connect 21 8 32 0;
#X connect 29 0 90 0;
#X connect 30 0 22 0;
#X connect 30 1 23 0;
#X connect 30 2 24 0;
#X connect 30 3 25 0;
#X connect 30 4 26 0;
#X connect 30 5 27 0;
#X connect 30 6 28 0;
#X connect 30 7 29 0;
#X connect 30 8 42 0;
#X connect 31 0 21 0;
#X connect 32 0 30 0;
#X connect 33 0 92 0;
#X connect 40 0 92 0;
#X connect 41 0 33 0;
#X connect 41 1 34 0;
#X connect 41 2 35 0;
#X connect 41 3 36 0;
#X connect 41 4 37 0;
#X connect 41 5 38 0;
#X connect 41 6 39 0;
#X connect 41 7 40 0;
#X connect 42 0 41 0;
#X connect 43 0 6 0;
#X connect 45 0 44 0;
#X connect 47 0 46 0;
#X connect 49 0 48 0;
#X connect 51 0 50 0;
#X connect 53 0 52 0;
#X connect 55 0 54 0;
#X connect 57 0 56 0;
#X connect 59 0 58 0;
#X connect 61 0 62 0;
#X connect 61 1 64 0;
#X connect 61 2 66 0;
#X connect 61 3 68 0;
#X connect 61 4 70 0;
#X connect 61 5 72 0;
#X connect 61 6 74 0;
#X connect 61 7 76 0;
#X connect 62 0 60 0;
#X connect 64 0 63 0;
#X connect 66 0 65 0;
#X connect 68 0 67 0;
#X connect 70 0 69 0;
#X connect 72 0 71 0;
#X connect 74 0 73 0;
#X connect 75 0 78 0;
#X connect 76 0 75 0;
#X connect 77 0 61 0;
#X connect 78 0 79 0;
#X connect 79 0 82 0;
#X connect 80 0 89 0;
#X connect 82 0 83 0;
#X connect 83 0 84 0;
#X connect 84 0 80 0;
#X connect 86 0 87 0;
#X connect 87 0 85 0;
#X connect 87 0 85 1;
#X connect 88 0 87 1;
#X connect 89 0 81 0;
#X connect 89 0 81 1;
#X connect 90 0 91 0;
#X connect 91 0 89 1;
#X connect 92 0 88 0;
