#N canvas 163 15 722 837 10;
#X obj 101 101 cnv 15 98 57 empty empty empty 20 12 0 14 -257985 -66577
0;
#X obj 101 159 cnv 15 98 70 empty empty button: 2 8 0 10 -4034 -66577
0;
#X obj 102 186 nbx 3 14 1 16 0 0 empty empty chan 0 -8 0 10 -262144
-1 -1 1 256;
#X obj 102 213 nbx 3 14 0 127 0 0 empty empty num/enc_mul 0 -8 0 10
-262144 -1 -1 0 256;
#X obj 102 232 vradio 15 1 0 2 empty empty empty 0 -8 0 10 -262144
-1 -1 0;
#X obj 119 232 cnv 15 60 14 empty empty relative 2 8 0 10 -233017 -66577
0;
#X obj 119 247 cnv 15 60 14 empty empty absolute 2 8 0 10 -233017 -66577
0;
#X obj 102 266 tgl 15 0 empty empty detent_only 17 7 0 10 -262144 -1
-1 2 2;
#X obj 294 307 +;
#X obj 294 273 t b f;
#X obj 221 313 << 4;
#X obj 261 380 +;
#X obj 261 346 t b f;
#X obj 102 285 vradio 15 1 0 2 empty empty empty 0 -8 0 10 -262144
-1 -1 1;
#X obj 119 285 cnv 15 78 14 empty empty independent 2 8 0 10 -233017
-66577 0;
#X obj 119 300 cnv 15 78 14 empty empty multiply_enc 2 8 0 10 -233017
-66577 0;
#X obj 102 114 nbx 3 14 1 16 0 0 empty empty chan 0 -8 0 10 -262144
-1 -1 1 256;
#X obj 102 141 nbx 3 14 0 127 0 0 empty empty num 0 -8 0 10 -262144
-1 -1 6 256;
#X obj 102 22 inlet;
#X obj -2 356 int;
#X obj -42 368 int;
#X obj -2 516 change;
#X obj -42 461 change;
#X obj -42 490 - 1;
#X obj 261 403 s \$0-flags;
#X obj -42 701 pack 0 0 0 0 0;
#X obj -2 538 t b f;
#X obj -42 566 t b f;
#X obj -115 534 r \$0-flags;
#X obj 153 369 int;
#X obj 79 368 int;
#X obj 153 529 change;
#X obj 79 461 change;
#X obj 79 490 - 1;
#X obj 153 551 t b f;
#X obj 79 566 t b f;
#X msg 86 424 btn_chan set \$1;
#X msg 181 451 btn_mul set \$1;
#X obj 181 499 s \$0-fdbk;
#X msg 18 395 num set \$1;
#X msg -29 424 chan set \$1;
#X obj 6 485 s \$0-fdbk;
#X obj 188 7 r \$0-fdbk;
#X obj -42 741 outlet;
#X obj 299 204 & 16;
#X msg 299 243 set \$1;
#X obj 299 98 route set;
#X msg 239 217 set \$1;
#X obj 239 186 & 2;
#X msg 230 154 set \$1;
#X obj 230 132 & 1;
#X obj 299 224 >> 4;
#X obj 102 51 route chan num btn_chan btn_num flags;
#X connect 2 0 30 0;
#X connect 3 0 29 0;
#X connect 4 0 9 0;
#X connect 7 0 8 0;
#X connect 8 0 12 0;
#X connect 9 0 8 0;
#X connect 9 1 8 1;
#X connect 10 0 11 0;
#X connect 11 0 24 0;
#X connect 12 0 11 0;
#X connect 12 1 11 1;
#X connect 13 0 10 0;
#X connect 16 0 20 0;
#X connect 17 0 19 0;
#X connect 18 0 52 0;
#X connect 19 0 39 0;
#X connect 19 0 21 0;
#X connect 20 0 40 0;
#X connect 20 0 22 0;
#X connect 21 0 26 0;
#X connect 22 0 23 0;
#X connect 23 0 27 0;
#X connect 25 0 43 0;
#X connect 26 0 25 0;
#X connect 26 1 25 2;
#X connect 27 0 25 0;
#X connect 27 1 25 1;
#X connect 28 0 25 0;
#X connect 29 0 37 0;
#X connect 29 0 31 0;
#X connect 30 0 36 0;
#X connect 30 0 32 0;
#X connect 31 0 34 0;
#X connect 32 0 33 0;
#X connect 33 0 35 0;
#X connect 34 0 25 0;
#X connect 34 1 25 4;
#X connect 35 0 25 0;
#X connect 35 1 25 3;
#X connect 36 0 38 0;
#X connect 37 0 38 0;
#X connect 39 0 41 0;
#X connect 40 0 41 0;
#X connect 42 0 52 0;
#X connect 44 0 51 0;
#X connect 45 0 13 0;
#X connect 46 0 44 0;
#X connect 46 0 48 0;
#X connect 46 0 50 0;
#X connect 47 0 7 0;
#X connect 48 0 47 0;
#X connect 49 0 4 0;
#X connect 50 0 49 0;
#X connect 51 0 45 0;
#X connect 52 0 16 0;
#X connect 52 1 17 0;
#X connect 52 2 2 0;
#X connect 52 3 3 0;
#X connect 52 4 46 0;
#X coords 0 -1 1 1 100 220 2 100 100;
