#N canvas 107 1 864 682 10;
#N canvas 140 177 756 402 ping 0;
#X obj 238 24 sysexin;
#X obj 238 48 x37v-sysex2list;
#X obj 238 117 list-compare;
#X obj 319 94 list-value \$0-sysex_header;
#X obj 238 71 t a b;
#X obj 238 183 spigot 0;
#X obj 238 139 t b f;
#X obj 291 162 == 1;
#X obj 30 90 x37v-list2sysex;
#X obj 30 69 list-value \$0-sysex_header;
#X obj 30 37 bng 15 250 50 0 empty empty empty 17 7 0 10 -262144 -1
-1;
#X obj 30 146 midiout;
#X obj 30 15 inlet;
#X obj 238 213 outlet;
#X connect 0 0 1 0;
#X connect 1 0 4 0;
#X connect 2 0 6 0;
#X connect 3 0 2 1;
#X connect 4 0 2 0;
#X connect 4 1 3 0;
#X connect 5 0 13 0;
#X connect 6 0 5 0;
#X connect 6 1 7 0;
#X connect 7 0 5 1;
#X connect 8 0 11 0;
#X connect 9 0 8 0;
#X connect 10 0 9 0;
#X connect 12 0 10 0;
#X restore 376 567 pd ping;
#X obj 376 547 bng 15 250 50 0 empty empty ping_device 17 7 0 10 -262144
-1 -1;
#X obj 376 588 bng 15 250 50 0 empty empty empty 17 7 0 10 -262144
-1 -1;
#X obj 684 10 cnv 15 150 20 empty \$0-boards_label num_boards-2 20
12 0 14 -233017 -66577 0;
#X obj 683 35 cnv 15 150 20 empty \$0-version_label fw_version-1 20
12 0 14 -233017 -66577 0;
#N canvas 0 15 950 533 btns 0;
#X obj 166 46 route 0 1 2 3 4 5 6 7;
#X obj 187 100 button_editor;
#X obj 222 358 s \$0-set_btn;
#X obj 100 255 list prepend 0;
#X obj 144 233 list prepend 1;
#X obj 187 213 list prepend 2;
#X obj 231 192 list prepend 3;
#X obj 274 263 list prepend 4;
#X obj 318 241 list prepend 5;
#X obj 361 221 list prepend 6;
#X obj 405 200 list prepend 7;
#X obj 166 22 r \$0-get_btn;
#N canvas 0 16 578 722 btn_guts 0;
#X obj 13 487 list-value \$0-btn0;
#X obj 13 164 route 0 1 2 3 4 5 6 7;
#X obj 5 13 r \$0-set_btn;
#X obj 5 46 t a a;
#X obj 5 103 list trim 0;
#X obj 5 79 spigot 0;
#X msg 5 126 \$1 bang;
#X obj 58 56 tgl 15 0 empty empty empty 17 7 0 10 -262144 -1 -1 1 1
;
#X obj 31 445 list-value \$0-btn1;
#X obj 63 559 list prepend 5;
#X obj 13 509 list prepend 0;
#X obj 31 467 list prepend 1;
#X obj 49 424 list prepend 2;
#X obj 49 402 list-value \$0-btn2;
#X obj 67 382 list prepend 3;
#X obj 67 360 list-value \$0-btn3;
#X obj 85 340 list prepend 4;
#X obj 85 318 list-value \$0-btn4;
#X obj 103 298 list prepend 5;
#X obj 103 276 list-value \$0-btn5;
#X obj 121 255 list prepend 6;
#X obj 121 233 list-value \$0-btn6;
#X obj 139 213 list prepend 7;
#X obj 139 191 list-value \$0-btn7;
#X obj 58 34 r \$0-interactive;
#X obj 63 584 s \$0-cmd_out;
#X connect 0 0 10 0;
#X connect 1 0 0 0;
#X connect 1 1 8 0;
#X connect 1 2 13 0;
#X connect 1 3 15 0;
#X connect 1 4 17 0;
#X connect 1 5 19 0;
#X connect 1 6 21 0;
#X connect 1 7 23 0;
#X connect 2 0 3 0;
#X connect 3 0 5 0;
#X connect 3 1 1 0;
#X connect 4 0 6 0;
#X connect 5 0 4 0;
#X connect 6 0 1 0;
#X connect 7 0 5 1;
#X connect 8 0 11 0;
#X connect 9 0 25 0;
#X connect 10 0 9 0;
#X connect 11 0 9 0;
#X connect 12 0 9 0;
#X connect 13 0 12 0;
#X connect 14 0 9 0;
#X connect 15 0 14 0;
#X connect 16 0 9 0;
#X connect 17 0 16 0;
#X connect 18 0 9 0;
#X connect 19 0 18 0;
#X connect 20 0 9 0;
#X connect 21 0 20 0;
#X connect 22 0 9 0;
#X connect 23 0 22 0;
#X connect 24 0 7 0;
#X restore 648 -42 pd btn_guts;
#X obj 100 100 button_editor;
#X obj 144 100 button_editor;
#X obj 231 100 button_editor;
#X obj 274 100 button_editor;
#X obj 318 100 button_editor;
#X obj 361 100 button_editor;
#X obj 405 100 button_editor;
#X obj 510 -44 r \$0-input;
#X obj 510 -20 route 9;
#X obj 510 7 t a a;
#X msg 542 110 \$1 chan set \$2;
#X obj 510 162 s \$0-get_btn;
#X msg 510 130 \$1 num set \$3;
#X obj 542 30 unpack f f;
#X obj 609 55 + 1;
#X obj 542 84 pack f f;
#X connect 0 0 13 0;
#X connect 0 1 14 0;
#X connect 0 2 1 0;
#X connect 0 3 15 0;
#X connect 0 4 16 0;
#X connect 0 5 17 0;
#X connect 0 6 18 0;
#X connect 0 7 19 0;
#X connect 1 0 5 0;
#X connect 3 0 2 0;
#X connect 4 0 2 0;
#X connect 5 0 2 0;
#X connect 6 0 2 0;
#X connect 7 0 2 0;
#X connect 8 0 2 0;
#X connect 9 0 2 0;
#X connect 10 0 2 0;
#X connect 11 0 0 0;
#X connect 13 0 3 0;
#X connect 14 0 4 0;
#X connect 15 0 6 0;
#X connect 16 0 7 0;
#X connect 17 0 8 0;
#X connect 18 0 9 0;
#X connect 19 0 10 0;
#X connect 20 0 21 0;
#X connect 21 0 22 0;
#X connect 22 0 25 0;
#X connect 22 1 26 0;
#X connect 23 0 24 0;
#X connect 25 0 24 0;
#X connect 26 0 28 0;
#X connect 26 1 27 0;
#X connect 27 0 28 1;
#X connect 28 0 23 0;
#X coords 0 -1 1 1 345 60 2 100 100;
#X restore 11 546 pd btns;
#X text 10 523 Button Settings:;
#X obj 11 14 bng 15 250 50 0 empty empty get_data_from_box 17 7 0 10
-262144 -1 -1;
#N canvas 0 0 999 682 encoders 0;
#X obj 337 -3 route 0 8 1 9 2 10 3 11 4 12 5 13 6 14 7 15;
#X obj 108 614 list prepend 0;
#X obj 101 638 list prepend 8;
#X obj 205 589 list prepend 9;
#X obj 212 566 list prepend 1;
#X obj 309 632 list prepend 10;
#X obj 316 608 list prepend 2;
#X obj 413 583 list prepend 11;
#X obj 420 560 list prepend 3;
#X obj 518 628 list prepend 12;
#X obj 525 604 list prepend 4;
#X obj 629 556 list prepend 5;
#X obj 733 598 list prepend 6;
#X obj 837 550 list prepend 7;
#X obj 621 579 list prepend 13;
#X obj 726 622 list prepend 14;
#X obj 829 573 list prepend 15;
#X obj 467 719 s \$0-set_enc;
#X obj 337 -26 r \$0-get_enc;
#N canvas 150 15 563 675 enc 0;
#X obj 13 164 route 0 1 2 3 4 5 6 7;
#X obj 5 46 t a a;
#X obj 5 103 list trim 0;
#X obj 5 79 spigot 0;
#X msg 5 126 \$1 bang;
#X obj 58 56 tgl 15 0 empty empty empty 17 7 0 10 -262144 -1 -1 1 1
;
#X obj 13 509 list prepend 0;
#X obj 31 467 list prepend 1;
#X obj 49 424 list prepend 2;
#X obj 67 382 list prepend 3;
#X obj 85 340 list prepend 4;
#X obj 103 298 list prepend 5;
#X obj 121 255 list prepend 6;
#X obj 139 213 list prepend 7;
#X obj 58 34 r \$0-interactive;
#X obj 63 584 s \$0-cmd_out;
#X obj 63 559 list prepend 4;
#X obj 5 13 r \$0-set_enc;
#X obj 139 191 list-value \$0-enc7;
#X obj 121 233 list-value \$0-enc6;
#X obj 103 276 list-value \$0-enc5;
#X obj 85 318 list-value \$0-enc4;
#X obj 67 360 list-value \$0-enc3;
#X obj 49 402 list-value \$0-enc2;
#X obj 31 445 list-value \$0-enc1;
#X obj 13 487 list-value \$0-enc0;
#X obj 333 618 s \$0-cmd_out;
#X obj 333 593 list prepend 4;
#X obj 283 543 list prepend 8;
#X obj 282 521 list-value \$0-enc8;
#X obj 301 501 list prepend 9;
#X obj 301 479 list-value \$0-enc9;
#X obj 319 458 list prepend 10;
#X obj 319 436 list-value \$0-enc10;
#X obj 337 416 list prepend 11;
#X obj 337 394 list-value \$0-enc11;
#X obj 355 374 list prepend 12;
#X obj 355 352 list-value \$0-enc12;
#X obj 373 332 list prepend 13;
#X obj 373 310 list-value \$0-enc13;
#X obj 391 289 list prepend 14;
#X obj 391 267 list-value \$0-enc14;
#X obj 409 247 list prepend 15;
#X obj 409 225 list-value \$0-enc15;
#X obj 283 198 route 8 9 10 11 12 13 14 15;
#X connect 0 0 25 0;
#X connect 0 1 24 0;
#X connect 0 2 23 0;
#X connect 0 3 22 0;
#X connect 0 4 21 0;
#X connect 0 5 20 0;
#X connect 0 6 19 0;
#X connect 0 7 18 0;
#X connect 0 8 44 0;
#X connect 1 0 3 0;
#X connect 1 1 0 0;
#X connect 2 0 4 0;
#X connect 3 0 2 0;
#X connect 4 0 0 0;
#X connect 5 0 3 1;
#X connect 6 0 16 0;
#X connect 7 0 16 0;
#X connect 8 0 16 0;
#X connect 9 0 16 0;
#X connect 10 0 16 0;
#X connect 11 0 16 0;
#X connect 12 0 16 0;
#X connect 13 0 16 0;
#X connect 14 0 5 0;
#X connect 16 0 15 0;
#X connect 17 0 1 0;
#X connect 18 0 13 0;
#X connect 19 0 12 0;
#X connect 20 0 11 0;
#X connect 21 0 10 0;
#X connect 22 0 9 0;
#X connect 23 0 8 0;
#X connect 24 0 7 0;
#X connect 25 0 6 0;
#X connect 27 0 26 0;
#X connect 28 0 27 0;
#X connect 29 0 28 0;
#X connect 30 0 27 0;
#X connect 31 0 30 0;
#X connect 32 0 27 0;
#X connect 33 0 32 0;
#X connect 34 0 27 0;
#X connect 35 0 34 0;
#X connect 36 0 27 0;
#X connect 37 0 36 0;
#X connect 38 0 27 0;
#X connect 39 0 38 0;
#X connect 40 0 27 0;
#X connect 41 0 40 0;
#X connect 42 0 27 0;
#X connect 43 0 42 0;
#X connect 44 0 29 0;
#X connect 44 1 31 0;
#X connect 44 2 33 0;
#X connect 44 3 35 0;
#X connect 44 4 37 0;
#X connect 44 5 39 0;
#X connect 44 6 41 0;
#X connect 44 7 43 0;
#X restore 46 2 pd enc guts;
#X obj 725 102 enc_editor;
#X obj 1000 19 r \$0-input;
#X obj 1088 298 + 1;
#X obj 1021 327 pack f f;
#X obj 1000 43 route 8;
#X obj 1095 490 s \$0-get_enc;
#X obj 1021 273 unpack f f;
#X msg 1021 250 \$1 \$3;
#X obj 1207 299 + 1;
#X obj 1140 328 pack f f;
#X obj 1140 274 unpack f f;
#X msg 1140 251 \$1 \$5;
#X obj 101 102 enc_editor;
#X obj 205 102 enc_editor;
#X obj 101 325 enc_editor;
#X obj 205 325 enc_editor;
#X obj 309 102 enc_editor;
#X obj 413 102 enc_editor;
#X obj 309 325 enc_editor;
#X obj 413 325 enc_editor;
#X obj 517 102 enc_editor;
#X obj 621 102 enc_editor;
#X obj 517 325 enc_editor;
#X obj 621 325 enc_editor;
#X obj 829 102 enc_editor;
#X obj 725 325 enc_editor;
#X obj 829 325 enc_editor;
#X obj 1000 70 t b a a a a a b;
#X msg 959 386 \$1 num \$4;
#X msg 1021 353 \$1 chan \$2;
#X msg 1140 354 \$1 btn_chan \$2;
#X msg 1058 193 \$1 btn_num \$6;
#X msg 1040 222 \$1 flags \$2;
#X msg 1102 98 0;
#X obj 1102 125 s \$0-interactive;
#X obj 967 166 s \$0-interactive;
#X msg 967 139 1;
#X connect 0 0 32 0;
#X connect 0 1 34 0;
#X connect 0 2 33 0;
#X connect 0 3 35 0;
#X connect 0 4 36 0;
#X connect 0 5 38 0;
#X connect 0 6 37 0;
#X connect 0 7 39 0;
#X connect 0 8 40 0;
#X connect 0 9 42 0;
#X connect 0 10 41 0;
#X connect 0 11 43 0;
#X connect 0 12 20 0;
#X connect 0 13 45 0;
#X connect 0 14 44 0;
#X connect 0 15 46 0;
#X connect 1 0 17 0;
#X connect 2 0 17 0;
#X connect 3 0 17 0;
#X connect 4 0 17 0;
#X connect 5 0 17 0;
#X connect 6 0 17 0;
#X connect 7 0 17 0;
#X connect 8 0 17 0;
#X connect 9 0 17 0;
#X connect 10 0 17 0;
#X connect 11 0 17 0;
#X connect 12 0 17 0;
#X connect 13 0 17 0;
#X connect 14 0 17 0;
#X connect 15 0 17 0;
#X connect 16 0 17 0;
#X connect 18 0 0 0;
#X connect 20 0 12 0;
#X connect 21 0 24 0;
#X connect 22 0 23 1;
#X connect 23 0 49 0;
#X connect 24 0 47 0;
#X connect 26 0 23 0;
#X connect 26 1 22 0;
#X connect 27 0 26 0;
#X connect 28 0 29 1;
#X connect 29 0 50 0;
#X connect 30 0 29 0;
#X connect 30 1 28 0;
#X connect 31 0 30 0;
#X connect 32 0 1 0;
#X connect 33 0 4 0;
#X connect 34 0 2 0;
#X connect 35 0 3 0;
#X connect 36 0 6 0;
#X connect 37 0 8 0;
#X connect 38 0 5 0;
#X connect 39 0 7 0;
#X connect 40 0 10 0;
#X connect 41 0 11 0;
#X connect 42 0 9 0;
#X connect 43 0 14 0;
#X connect 44 0 13 0;
#X connect 45 0 15 0;
#X connect 46 0 16 0;
#X connect 47 0 56 0;
#X connect 47 1 48 0;
#X connect 47 2 27 0;
#X connect 47 3 52 0;
#X connect 47 4 51 0;
#X connect 47 5 31 0;
#X connect 47 6 53 0;
#X connect 48 0 25 0;
#X connect 49 0 25 0;
#X connect 50 0 25 0;
#X connect 51 0 25 0;
#X connect 52 0 25 0;
#X connect 53 0 54 0;
#X connect 56 0 55 0;
#X coords 0 -1 1 1 830 450 1 100 100;
#X restore 8 65 pd encoders;
#N canvas 0 150 808 467 guts 0;
#X obj 14 53 list-value \$0-sysex_header;
#X obj 14 9 loadbang;
#X msg 14 32 125 98 117 122 122 114 0;
#N canvas 108 15 323 382 sysex 0;
#X obj 7 11 sysexin;
#X obj 7 33 x37v-sysex2list;
#X obj 39 145 list length;
#X obj 7 55 t a a;
#X obj 71 116 list length;
#X obj 39 74 t a b;
#X obj 71 95 list-value \$0-sysex_header;
#X obj 39 172 >;
#X obj 7 196 spigot;
#X obj 7 303 list split;
#X obj 7 219 t a b;
#X obj 74 282 list length;
#X obj 74 261 list-value \$0-sysex_header;
#X obj 40 345 outlet;
#X connect 0 0 1 0;
#X connect 1 0 3 0;
#X connect 2 0 7 0;
#X connect 3 0 8 0;
#X connect 3 1 5 0;
#X connect 4 0 7 1;
#X connect 5 0 2 0;
#X connect 5 1 6 0;
#X connect 6 0 4 0;
#X connect 7 0 8 1;
#X connect 8 0 10 0;
#X connect 9 1 13 0;
#X connect 10 0 9 0;
#X connect 10 1 12 0;
#X connect 11 0 9 1;
#X connect 12 0 11 0;
#X restore 23 83 pd sysex match;
#X obj 23 105 s \$0-input;
#X obj 24 136 r \$0-input;
#X obj 54 179 s \$0-boards;
#X obj 24 200 s \$0-version;
#X obj 253 52 r \$0-boards;
#X obj 253 115 s \$0-boards_label;
#X msg 253 94 label \$1;
#X obj 24 157 route 6 7;
#X msg 254 179 label \$1;
#X obj 254 137 r \$0-version;
#X obj 254 158 makefilename fw_version-%d;
#X obj 254 200 s \$0-version_label;
#X obj 253 73 makefilename num_boards-%d;
#X obj 25 275 list-value \$0-sysex_header;
#X obj 25 321 x37v-list2sysex;
#X obj 25 343 midiout;
#X obj 25 251 t b a;
#X obj 25 300 list append;
#X obj 25 229 r \$0-cmd_out;
#X text 208 14 our sysex header;
#X obj 259 331 s \$0-interactive;
#X obj 259 310 tgl 15 0 empty empty empty 17 7 0 10 -262144 -1 -1 1
1;
#X obj 259 263 loadbang;
#X msg 259 286 1;
#X obj 470 251 s \$0-boards_label;
#X msg 470 229 label board_cnt;
#X obj 598 250 s \$0-version_label;
#X msg 598 228 label fw_version;
#X obj 470 165 loadbang;
#X connect 1 0 2 0;
#X connect 2 0 0 0;
#X connect 3 0 4 0;
#X connect 5 0 11 0;
#X connect 8 0 16 0;
#X connect 10 0 9 0;
#X connect 11 0 7 0;
#X connect 11 1 6 0;
#X connect 12 0 15 0;
#X connect 13 0 14 0;
#X connect 14 0 12 0;
#X connect 16 0 10 0;
#X connect 17 0 21 0;
#X connect 18 0 19 0;
#X connect 20 0 17 0;
#X connect 20 1 21 1;
#X connect 21 0 18 0;
#X connect 22 0 20 0;
#X connect 25 0 24 0;
#X connect 26 0 27 0;
#X connect 27 0 25 0;
#X connect 29 0 28 0;
#X connect 31 0 30 0;
#X connect 32 0 29 0;
#X connect 32 0 31 0;
#X restore 782 524 pd guts;
#N canvas 215 55 722 423 get 0;
#N canvas 154 410 450 300 get 0;
#X obj 17 38 list-value \$0-sysex_header;
#X obj 17 81 x37v-list2sysex;
#X obj 17 102 midiout;
#X obj 17 17 inlet;
#X obj 17 59 list append 0;
#X connect 0 0 4 0;
#X connect 1 0 2 0;
#X connect 3 0 0 0;
#X connect 4 0 1 0;
#X restore 31 89 pd get version;
#N canvas 154 410 296 153 num 0;
#X obj 5 32 list-value \$0-sysex_header;
#X obj 5 75 x37v-list2sysex;
#X obj 5 96 midiout;
#X obj 5 9 inlet;
#X obj 5 54 list append 1;
#X connect 0 0 4 0;
#X connect 1 0 2 0;
#X connect 3 0 0 0;
#X connect 4 0 1 0;
#X restore 54 67 pd num boards;
#N canvas 36 149 438 342 get 0;
#X obj 13 46 t b b;
#X msg 82 165 0;
#X obj 64 189 f 0;
#X obj 95 189 + 1;
#X obj 13 133 until;
#X obj 31 91 * 4;
#X obj 31 70 r \$0-boards;
#X msg 64 213 3 \$1;
#X obj 13 15 inlet;
#X obj 64 239 s \$0-cmd_out;
#X text 68 93 4 per board;
#X obj 13 112 i 4;
#X text 107 215 the actual sysex command [minus header];
#X connect 0 0 11 0;
#X connect 0 1 1 0;
#X connect 1 0 2 1;
#X connect 2 0 3 0;
#X connect 2 0 7 0;
#X connect 3 0 2 1;
#X connect 4 0 2 0;
#X connect 5 0 11 1;
#X connect 6 0 5 0;
#X connect 7 0 9 0;
#X connect 8 0 0 0;
#X connect 11 0 4 0;
#X restore 40 261 pd get button data;
#N canvas 36 149 393 309 get 0;
#X obj 13 46 t b b;
#X msg 82 165 0;
#X obj 64 189 f 0;
#X obj 95 189 + 1;
#X obj 13 133 until;
#X obj 31 70 r \$0-boards;
#X obj 13 15 inlet;
#X obj 64 239 s \$0-cmd_out;
#X obj 31 91 * 8;
#X msg 64 213 2 \$1;
#X text 101 212 the actual sysex request [minus header];
#X obj 13 112 i 8;
#X text 66 91 8 per board;
#X connect 0 0 11 0;
#X connect 0 1 1 0;
#X connect 1 0 2 1;
#X connect 2 0 3 0;
#X connect 2 0 9 0;
#X connect 3 0 2 1;
#X connect 4 0 2 0;
#X connect 5 0 8 0;
#X connect 6 0 0 0;
#X connect 8 0 11 1;
#X connect 9 0 7 0;
#X connect 11 0 4 0;
#X restore 8 288 pd get encoder data;
#X obj 8 18 inlet;
#X obj 8 41 t b b b;
#X obj 8 210 t b b;
#X text 72 187 give us some time to get the board count;
#X obj 8 185 delay 50;
#X obj 61 115 r \$0-boards;
#X obj 61 136 bang;
#X msg 61 155 0;
#X connect 4 0 5 0;
#X connect 5 0 8 0;
#X connect 5 1 0 0;
#X connect 5 2 1 0;
#X connect 6 0 3 0;
#X connect 6 1 2 0;
#X connect 8 0 6 0;
#X connect 9 0 10 0;
#X connect 10 0 11 0;
#X connect 11 0 8 1;
#X restore 11 41 pd get data;
#X obj 502 532 ctlin;
#X obj 502 556 pack f f f;
#X obj 502 597 spigot 0;
#X obj 502 618 print ctlin;
#X obj 555 577 tgl 15 0 empty empty print_ccin 17 7 0 10 -262144 -1
-1 0 1;
#X text 566 595 useful for debuging interface;
#X text 370 646 If you hit the ping_device button above \, the button
below it should flash soon after.. otherwise make sure you have your
device connected into PD [both input and output].;
#N canvas 217 46 267 211 bootload 0;
#X obj 20 147 x37v-list2sysex;
#X obj 20 57 list-value \$0-sysex_header;
#X obj 20 25 bng 15 250 50 0 empty empty empty 17 7 0 10 -262144 -1
-1;
#X obj 20 178 midiout;
#X obj 20 124 list append;
#X text 22 3 CAREFUL! jump to bootloader;
#X msg 94 103 127;
#X obj 94 81 loadbang;
#X connect 0 0 3 0;
#X connect 1 0 4 0;
#X connect 2 0 1 0;
#X connect 4 0 0 0;
#X connect 6 0 4 1;
#X connect 7 0 6 0;
#X restore 754 549 pd bootload;
#X connect 0 0 2 0;
#X connect 1 0 0 0;
#X connect 7 0 10 0;
#X connect 11 0 12 0;
#X connect 11 1 12 1;
#X connect 11 2 12 2;
#X connect 12 0 13 0;
#X connect 13 0 14 0;
#X connect 15 0 13 1;
